<?xml version="1.0" encoding="UTF-8" standalone="no"?>
<svg xmlns="http://www.w3.org/2000/svg" version="1.1" viewBox="0 0 100.57539 115.60779" xml:space="preserve">
<path style="fill:black" d="m 53.265614,110.17747 -2.045202,-3.03876 10.600078,-6.26888 1.579338,-0.42825 c 0.958767,0.39786 1.816092,0.30482 2.413682,-0.26005 0.62365,-0.588782 0.967408,-1.673462 0.960712,-3.054692 L 66.565973,54.171785 c -0.0164,-3.383383 -2.084349,-7.097636 -4.530546,-8.109483 L 61.976667,46.035612 23.96539,22.094843 c -3.479945,0.07738 -10.04832,1.212071 -14.0047973,4.855243 -2.097073,2.666925 -3.8085177,4.528005 -3.7990856,7.882312 l 0.0057,2.042501 -3.2143885,0.191765 -0.0057,-2.042502 C 2.9345076,30.539333 4.9981795,27.605163 7.7375614,24.121088 11.788512,19.799332 19.97052,17.979351 24.389511,18.003252 l 0.53965,0.123567 38.250307,24.053691 c 3.689476,1.550533 6.575884,6.724402 6.600488,11.79949 l 0.208249,42.955188 c 0.0076,2.7196 -0.842474,5.085362 -2.332657,6.492932 -1.233671,1.16396 -2.816244,1.5832 -4.446878,1.20499 l -9.943064,5.54432 z" />
<path style="fill:black" d="m 2.931904,34.572876 -0.019,45.001895 c -0.001,4.29209 2.43031,8.83989 5.41987,10.1378 l 42.207299,23.663989 c 0.585457,0.25383 1.169341,0.36859 1.725129,0.33574 2.120668,-0.12537 3.545589,-2.38957 3.547043,-5.63256 l 0.019,-42.380222 c 0.0019,-4.292098 -2.959967,-8.839886 -5.154633,-10.204029 l -3.707539,-2.715174 c -0.705885,0.850724 -2.247965,3.850757 -2.249098,8.445096 l -0.0073,29.747178 -7.230371,-12.985269 -5.326269,6.290687 c 0,0 -0.06334,-18.521577 -0.01112,-26.691744 -0.01357,-5.388664 1.177258,-9.736979 2.506184,-11.175373 L 8.204464,29.274962 c -0.58545,-0.253835 -1.16933,-0.368056 -1.72512,-0.335209 -2.12108,0.125351 -3.5460704,2.389079 -3.54744,5.633123 z" />
<path style="fill:black" d="m 28.035587,17.537628 c 0.07539,-1.261899 0.463374,-2.471181 1.171716,-3.235815 0.762141,-0.832982 1.743755,-1.071688 2.610908,-0.626773 l 38.835696,24.187351 c 1.810491,0.92828 4.081641,1.30355 6.406702,1.166139 3.24612,-0.185921 6.60678,-1.384272 8.947864,-2.88227 0.831534,-0.517168 1.535347,-1.090474 2.030729,-1.592219 -0.181493,-0.109241 -0.392119,-0.216762 -0.629636,-0.327135 l -35.636463,-20.752093 -5.648166,3.531478 0.0023,-9.3428424 c 3.43e-4,-1.3907624 0.457837,-2.7344902 1.224458,-3.5588495 0.759902,-0.832849 1.756082,-1.0753787 2.61315,-0.6269043 L 89.365697,26.165259 c 1.283937,0.608382 2.382952,1.381727 3.319396,2.558649 0.921888,1.131868 1.710245,3.044756 1.697381,5.224196 3.6e-5,0.06073 -0.01237,0.153282 -0.01237,0.153282 l -0.02071,47.437396 c -1.4e-5,0.0326 0.0045,0.0782 0.0045,0.11081 -6e-6,0.0222 -0.0045,0.0328 -0.0045,0.12172 l 9e-6,0.11108 -0.0079,4.7e-4 c -0.0915,2.97794 -1.210234,4.94135 -2.279507,6.24124 -3.366984,4.1224 -9.017127,6.58316 -15.027598,7.13833 -1.62138,0.0958 -3.250535,-0.0863 -4.855009,-0.39141 l 0.01895,-40.310287 c 0.04356,-3.992627 -1.162282,-7.751457 -3.283851,-10.383858 -1.374424,-1.713851 -3.05148,-3.03362 -5.129759,-4.005318 z" />
</svg>
